<svg height="512pt" viewBox="-66 0 512 512" width="512pt" xmlns="http://www.w3.org/2000/svg"><path d="m190 44.6875c-5.519531 0-10 4.476562-10 10v.226562c0 5.523438 4.480469 10 10 10 5.523438 0 10-4.476562 10-10v-.226562c0-5.523438-4.476562-10-10-10zm0 0"/><path d="m34.453125 465.15625c0 7.253906 5.9375 13.15625 13.230469 13.15625h284.636718c7.292969 0 13.226563-5.902344 13.226563-13.15625v-327.195312c0-7.253907-5.933594-13.15625-13.226563-13.15625h-284.636718c-7.296875 0-13.230469 5.902343-13.230469 13.15625zm20-320.351562h271.09375v313.507812h-271.09375zm0 0"/><path d="m117.386719 201.152344-19.597657 19.59375-6.261718-6.261719c-3.90625-3.902344-10.238282-3.902344-14.144532 0-3.90625 3.90625-3.90625 10.238281 0 14.144531l13.335938 13.332032c1.953125 1.953124 4.511719 2.929687 7.070312 2.929687 2.558594 0 5.117188-.976563 7.070313-2.929687l26.667969-26.667969c3.902344-3.902344 3.902344-10.234375 0-14.140625-3.90625-3.90625-10.234375-3.90625-14.140625 0zm0 0"/><path d="m117.386719 281.15625-19.597657 19.59375-6.261718-6.261719c-3.90625-3.902343-10.238282-3.902343-14.144532 0-3.90625 3.90625-3.90625 10.238281 0 14.144531l13.335938 13.332032c1.953125 1.953125 4.511719 2.929687 7.070312 2.929687 2.558594 0 5.117188-.976562 7.070313-2.929687l26.667969-26.667969c3.902344-3.90625 3.902344-10.238281 0-14.144531-3.90625-3.902344-10.234375-3.902344-14.140625.003906zm0 0"/><path d="m117.386719 361.15625-19.597657 19.597656-6.261718-6.265625c-3.90625-3.902343-10.238282-3.902343-14.144532 0-3.90625 3.90625-3.90625 10.238281 0 14.144531l13.335938 13.332032c1.953125 1.953125 4.511719 2.929687 7.070312 2.929687 2.558594 0 5.117188-.976562 7.070313-2.929687l26.667969-26.667969c3.902344-3.902344 3.902344-10.234375 0-14.140625-3.90625-3.902344-10.238282-3.902344-14.140625 0zm0 0"/><path d="m170.503906 231.558594h114.152344c5.519531 0 10-4.480469 10-10 0-5.523438-4.480469-10-10-10h-114.152344c-5.523437 0-10 4.476562-10 10 0 5.519531 4.476563 10 10 10zm0 0"/><path d="m170.503906 311.558594h114.152344c5.519531 0 10-4.476563 10-10 0-5.523438-4.480469-10-10-10h-114.152344c-5.523437 0-10 4.476562-10 10 0 5.523437 4.476563 10 10 10zm0 0"/><path d="m294.65625 381.5625c0-5.523438-4.480469-10-10-10h-114.152344c-5.523437 0-10 4.476562-10 10s4.476563 10 10 10h114.152344c5.519531 0 10-4.476562 10-10zm0 0"/><path d="m305.546875 428.3125h-41.035156c-5.519531 0-10 4.476562-10 10s4.480469 10 10 10h41.035156c5.523437 0 10-4.476562 10-10s-4.476563-10-10-10zm0 0"/><path d="m235.78125 428.3125h-.234375c-5.523437 0-10 4.476562-10 10s4.476563 10 10 10h.234375c5.523438 0 10-4.476562 10-10s-4.476562-10-10-10zm0 0"/><path d="m354 60.417969h-59.425781c-1.109375-16.621094-15.191407-29.816407-32.351563-29.816407h-23.660156c-8.59375-18.335937-27.585938-30.601562-48.5625-30.601562s-39.96875 12.265625-48.5625 30.601562h-23.660156c-17.882813 0-32.429688 14.324219-32.429688 31.933594v14.910156c0 17.605469 14.546875 31.929688 32.429688 31.929688h144.449218c16.863282 0 30.753907-12.738281 32.285157-28.957031h59.488281c3.253906 0 6 2.75 6 6v399.582031c0 3.253906-2.746094 6-6 6h-328c-3.253906 0-6-2.746094-6-6v-399.582031c0-3.25 2.746094-6 6-6 5.523438 0 10-4.476563 10-10 0-5.523438-4.476562-10-10-10-14.335938 0-26 11.664062-26 26v399.582031c0 14.335938 11.664062 26 26 26h328c14.335938 0 26-11.664062 26-26v-399.582031c0-14.335938-11.664062-26-26-26zm-79.34375 17.027343c0 6.578126-5.578125 11.929688-12.433594 11.929688h-144.445312c-6.855469 0-12.433594-5.351562-12.433594-11.929688v-14.910156c0-6.582031 5.578125-11.933594 12.433594-11.933594h30.523437c4.429688 0 8.328125-2.910156 9.589844-7.15625 4.09375-13.804687 17.296875-23.445312 32.109375-23.445312s28.015625 9.640625 32.113281 23.445312c1.257813 4.246094 5.15625 7.15625 9.585938 7.15625h30.523437c6.855469 0 12.433594 5.351563 12.433594 11.933594zm0 0"/><path d="m54.730469 80.417969h.269531c5.523438 0 10-4.476563 10-10 0-5.523438-4.476562-10-10-10h-.269531c-5.523438 0-10 4.476562-10 10 0 5.523437 4.476562 10 10 10zm0 0"/></svg>