<svg id="Layer_1" enable-background="new 0 0 512 512" height="512" viewBox="0 0 512 512" width="512" xmlns="http://www.w3.org/2000/svg"><g><path  d="m449.456 240 53.194-121.587c4.619-10.553-3.125-22.413-14.658-22.413h-112v-48c0-8.836-7.163-16-16-16h-258.752c-6.605-18.623-24.389-32-45.248-32-26.467 0-48 21.533-48 48v448c0 8.836 7.164 16 16 16s16-7.164 16-16v-448c0-8.822 7.178-16 16-16s16 7.178 16 16v448c0 8.836 7.164 16 16 16s16-7.164 16-16v-176h96v48c0 8.836 7.164 16 16 16h272c11.52 0 19.282-11.849 14.658-22.413zm-345.464-176h240v224h-240zm128 288v-32h128c8.837 0 16-7.164 16-16v-176h87.536l-46.194 105.587c-1.789 4.088-1.789 8.738 0 12.826l46.195 105.587z"/><path d="m260.509 254.162c11.698 6.152 25.456-3.797 23.215-16.867l-6.974-40.662 29.542-28.797c9.478-9.239 4.238-25.387-8.867-27.291l-40.827-5.933-18.258-36.994c-5.858-11.87-22.835-11.875-28.695 0l-18.258 36.995-40.827 5.933c-13.099 1.903-18.35 18.048-8.867 27.291l29.542 28.797-6.974 40.662c-2.238 13.046 11.495 23.03 23.215 16.867l36.517-19.198zm-59.229-43.411 2.916-17c.891-5.19-.831-10.486-4.602-14.162l-12.351-12.039 17.069-2.48c5.211-.757 9.716-4.03 12.047-8.752l7.633-15.466 7.633 15.466c2.331 4.722 6.835 7.996 12.047 8.752l17.069 2.48-12.351 12.04c-3.771 3.676-5.491 8.972-4.601 14.162l2.916 17c-25.186-13.241-20.25-13.235-45.425-.001z"/></g></svg>